# AST/ASF file generated using VICON BodyLanguage
# -----------------------------------------------
:version 1.10
:name VICON
:units
  mass 1.0
  length 0.45
  angle deg
:documentation
   .ast/.asf automatically generated from VICON data using
   VICON BodyBuilder and BodyLanguage model FoxedUp or BRILLIANT.MOD
:root
   order TX TY TZ RX RY RZ
   axis XYZ
   position 0 0 0  
   orientation 0 0 0 
:bonedata
  begin
     id 1 
     name lhipjoint
     direction 0.61886 -0.69539 0.365302 
     length 2.20474 
     axis 0 0 0  XYZ
  end
  begin
     id 2 
     name lfemur
     direction 0.34202 -0.939693 0  
     length 6.65149  
     axis 0 0 20  XYZ
    dof rx ry rz
    limits (-160.0 20.0)
           (-70.0 70.0)
           (-60.0 70.0)
  end
  begin
     id 3 
     name ltibia
     direction 0.34202 -0.939693 0   
     length 6.35814   
     axis 0 0 20   XYZ
    dof rx
    limits (-10.0 170.0)
  end
  begin
     id 4 
     name lfoot
     direction 0.101224 -0.278109 0.955201   
     length 2.18766   
     axis -90 7.62852e-016 20   XYZ
    dof rx rz
    limits (-45.0 90.0)
           (-70.0 20.0)
  end
  begin
     id 5 
     name ltoes
     direction 1.53524e-011 -4.21877e-011 1   
     length 1.09206   
     axis -90 7.62852e-016 20   XYZ
    dof rx
    limits (-90.0 20.0)
  end
  begin
     id 6 
     name rhipjoint
     direction -0.600207 -0.708087 0.371972   
     length 2.1652  
     axis 0 0 0  XYZ 
  end
  begin
     id 7 
     name rfemur
     direction -0.34202 -0.939693 0   
     length 6.54691   
     axis 0 0 -20   XYZ
    dof rx ry rz
    limits (-160.0 20.0)
           (-70.0 70.0)
           (-70.0 60.0)
  end
  begin
     id 8 
     name rtibia
     direction -0.34202 -0.939693 0   
     length 6.37474   
     axis 0 0 -20   XYZ
    dof rx
    limits (-10.0 170.0)
 end
 begin
     id 9 
     name rfoot
     direction -0.111266 -0.3057 0.945604   
     length 2.00903  
     axis -90 -7.62852e-016 -20   XYZ
    dof rx rz
    limits (-45.0 90.0)
           (-20.0 70.0)
  end
  begin
     id 10 
     name rtoes
     direction -1.5362e-011 -4.21913e-011 1   
     length 1.00221   
     axis -90 -7.62852e-016 -20   XYZ
    dof rx
    limits (-90.0 20.0)
  end
  begin
     id 11 
     name lowerback
     direction -0.0224561 0.999731 -0.00577314   
     length 2.10409   
     axis 0 0 0   XYZ
    dof rx ry rz
    limits (-20.0 45.0)
           (-30.0 30.0)
           (-30.0 30.0)
  end
  begin
     id 12 
     name upperback
     direction 0.0213126 0.999185 -0.0342817   
     length 2.09783   
     axis 0 0 0   XYZ
    dof rx ry rz
    limits (-20.0 45.0)
           (-30.0 30.0)
           (-30.0 30.0)
  end
  begin
     id 13 
     name thorax
     direction 0.0312356 0.999036 -0.0308451   
     length 2.09788   
     axis 0 0 0   XYZ
    dof rx ry rz
    limits (-20.0 45.0)
           (-30.0 30.0)
           (-30.0 30.0)
  end
  begin
     id 14 
     name lowerneck
     direction -0.0114419 0.996481 0.0830329   
     length 1.38575   
     axis 0 0 0   XYZ
    dof rx ry rz
    limits (-20.0 45.0)
           (-30.0 30.0)
           (-30.0 30.0)
  end
  begin
     id 15 
     name upperneck
     direction -0.0075675 0.996187 -0.0869092   
     length 1.39401   
     axis 0 0 0   XYZ
    dof rx ry rz
    limits (-20.0 45.0)
           (-30.0 30.0)
           (-30.0 30.0)
  end
  begin
     id 16
     name head
     direction -0.00222073 0.999264 -0.0382974  
     length 1.3964  
     axis 0 0 0   XYZ
    dof rx ry rz
    limits (-20.0 45.0)
           (-30.0 30.0)
           (-30.0 30.0)
  end
  begin
     id 17 
     name lclavicle
     direction 0.965962 0.222138 0.132556  
     length 2.81514  
     axis 0 0 0   XYZ
    dof ry rz
    limits (-20.0 10.0)
           (0.0 20.0)
  end
  begin
     id 18 
     name lhumerus
     direction 1 -4.48972e-011 7.03471e-018   
     length 4.47366   
     axis 180 -30 -90   XYZ
    dof rx ry rz
    limits (-60.0 90.0)
           (-90.0 90.0)
           (-90.0 90.0)
  end
  begin
     id 19
     name lradius
     direction 1 -4.48951e-011 -6.22192e-028   
     length 3.19948   
     axis 180 -30 -90   XYZ
    dof rx
    limits (-10.0 170.0)
  end
  begin
     id 20
     name lwrist
     direction 1 -4.48967e-011 -1.24264e-027   
     length 1.59974   
     axis 1.40095e-015 90 90   XYZ
    dof ry
    limits (-180.0 0.0)
 end
  begin
     id 21 
     name lhand
     direction 1 -4.4897e-011 -2.48528e-027   
     length 0.492667   
     axis 1.58582e-015 90 90   XYZ
    dof rx rz
    limits (-90.0 90.0)
           (-45.0 45.0)
  end
  begin
     id 22 
     name lfingers
     direction 1 -4.48996e-011 -4.97056e-027   
     length 0.397201   
     axis 3.17164e-015 90 90   XYZ
    dof rx
    limits (0.0 90.0)
  end
  begin
     id 23
     name lthumb
     direction 0.707107 -6.34981e-011 0.707107   
     length 0.570303   
     axis -90 45 2.85299e-015   XYZ
    dof rx rz
    limits (-45.0 45.0)
           (-45.0 45.0)
  end
  begin
     id 24 
     name rclavicle
     direction -0.961164 0.229034 0.153972   
     length 3.09348  
     axis 0 0 0   XYZ 
    dof ry rz
    limits (-10.0 20.0)
           (-20.0 0.0)
  end
  begin
     id 25 
     name rhumerus
     direction -1 -4.48971e-011 -9.06263e-028  
     length 4.3269   
     axis 180 30 90   XYZ
    dof rx ry rz
    limits (-90.0 60.0)
           (-90.0 90.0)
           (-90.0 90.0)
  end
  begin
     id 26 
     name rradius
     direction -1 -4.48953e-011 1.44659e-027   
     length 3.1896   
     axis 180 30 90   XYZ
    dof rx
    limits (-10.0 170.0)
  end
  begin
     id 27 
     name rwrist
     direction -1 -4.48988e-011 -1.24264e-027   
     length 1.5948   
     axis 1.40095e-015 -90 -90   XYZ
    dof ry
    limits (-180.0 0.0)
  end
  begin
     id 28
     name rhand
     direction -1 -4.49033e-011 -2.48528e-027   
     length 0.464496   
     axis 1.58582e-015 -90 -90   XYZ
    dof rx rz
    limits (-90.0 90.0)
           (-45.0 45.0)
  end
  begin
     id 29
     name rfingers
     direction -1 -4.48905e-011 -4.97056e-027   
     length 0.374489   
     axis 3.17164e-015 -90 -90   XYZ
    dof rx
    limits (0.0 90.0)
  end
  begin
     id 30
     name rthumb
     direction -0.707107 -6.34909e-011 0.707107   
     length 0.537693   
     axis -90 -45 -2.85299e-015   XYZ
    dof rx rz
    limits (-45.0 45.0)
           (-45.0 45.0)
  end
:hierarchy
  begin
    root lhipjoint rhipjoint lowerback
    lhipjoint lfemur
    lfemur ltibia
    ltibia lfoot
    lfoot ltoes
    rhipjoint rfemur
    rfemur rtibia
    rtibia rfoot
    rfoot rtoes
    lowerback upperback
    upperback thorax
    thorax lowerneck lclavicle rclavicle
    lowerneck upperneck
    upperneck head
    lclavicle lhumerus
    lhumerus lradius
    lradius lwrist
    lwrist lhand lthumb
    lhand lfingers
    rclavicle rhumerus
    rhumerus rradius
    rradius rwrist
    rwrist rhand rthumb
    rhand rfingers
  end

#!OML:ASF G:\acrobat\cartwheel_test 2\Patient 1\Session 2\acrobat4.ASF
:FULLY-SPECIFIED
:DEGREES
1076
root 4.83935 15.3082 -6.70198 0.670685 0.783214 1.76647
lowerback -0.0140176 0.295731 -5.38657
upperback -3.61861 0.319906 1.13387
thorax -3.77519 0.352857 4.18741
lowerneck -15.2864 -3.067 -3.16853
upperneck -17.4627 -2.93163 7.06552
head -2.99598 -1.37778 2.85205
rclavicle 1.31198e-014 -6.75868e-015
rhumerus -32.3794 14.4419 -62.3224
rradius 45.3418
rwrist 11.7451
rhand -8.40666 -24.9257
rfingers 7.12502
rthumb 17.5175 -54.1565
lclavicle 1.31198e-014 -6.75868e-015
lhumerus -42.6792 -11.5325 82.6243
lradius 38.0802
lwrist -2.46281
lhand -24.1756 4.28167
lfingers 7.12502
lthumb 2.3078 34.2489
rfemur -12.1413 7.76037 16.2347
rtibia 30.712
rfoot -18.2742 -22.1308
rtoes 2.91991
lfemur -11.7191 2.49612 -14.7217
ltibia 33.9672
lfoot -18.0036 10.276
ltoes -25.6182
1077
root 4.9461 15.3052 -6.68272 0.716961 0.483302 1.93135
lowerback -0.166782 0.381183 -5.14375
upperback -3.53717 0.450918 1.20549
thorax -3.61527 0.405453 4.12123
lowerneck -15.4571 -3.01991 -3.08485
upperneck -17.6047 -2.89674 6.79607
head -3.02613 -1.3605 2.74532
rclavicle -1.0635e-014 -1.19271e-014
rhumerus -31.6398 16.7686 -59.4125
rradius 45.8938
rwrist 11.0005
rhand -7.51115 -23.8237
rfingers 7.12502
rthumb 18.3792 -52.9755
lclavicle -1.0635e-014 -1.19271e-014
lhumerus -42.51 -11.981 80.5604
lradius 38.9987
lwrist -0.359063
lhand -27.6353 -0.890237
lfingers 7.12502
lthumb -1.03367 29.087
rfemur -12.107 8.36985 15.6322
rtibia 30.6439
rfoot -18.0188 -22.4585
rtoes 1.8641
lfemur -10.8216 2.91742 -15.213
ltibia 32.5897
lfoot -18.1541 10.1984
ltoes -27.4209
1078
root 5.05094 15.3124 -6.66431 0.767696 0.356917 2.40269
lowerback -0.20885 0.400812 -5.27676
upperback -3.48511 0.47983 1.26924
thorax -3.54343 0.421917 4.26227
lowerneck -15.7414 -3.01251 -3.18653
upperneck -17.7194 -2.88385 6.59597
head -3.02426 -1.34237 2.69318
rclavicle -1.89839e-014 1.11319e-014
rhumerus -30.8932 19.3403 -56.1992
rradius 46.2258
rwrist 10.1628
rhand -7.15762 -22.0785
rfingers 7.12502
rthumb 18.7192 -51.1978
lclavicle -1.89839e-014 1.11319e-014
lhumerus -42.2387 -12.3124 78.1506
lradius 39.7159
lwrist 2.07006
lhand -29.593 0.598606
lfingers 7.12502
lthumb -2.92441 30.5583
rfemur -12.0671 8.83124 14.6776
rtibia 30.5972
rfoot -17.7435 -22.7844
rtoes 0.744284
lfemur -10.134 3.66759 -16.181
ltibia 31.3228
lfoot -18.3519 9.90317
ltoes -27.8747
1079
root 5.15422 15.3316 -6.64997 0.897364 0.431267 3.13745
lowerback -0.228685 0.348027 -5.65705
upperback -3.49358 0.402719 1.24034
thorax -3.538 0.394576 4.44957
lowerneck -16.1628 -2.99474 -3.22725
upperneck -17.6193 -2.86979 6.39624
head -2.9242 -1.324 2.62205
rclavicle 1.90833e-014 -1.59028e-014
rhumerus -30.171 21.829 -52.8606
rradius 46.1972
rwrist 9.71425
rhand -6.84498 -23.6674
rfingers 7.12502
rthumb 19.0199 -52.7574
lclavicle 1.90833e-014 -1.59028e-014
lhumerus -41.7483 -12.7272 75.3168
lradius 39.9992
lwrist 3.95122
lhand -30.2931 0.479283
lfingers 7.12502
lthumb -3.6005 30.4286
rfemur -12.1026 9.11797 13.3858
rtibia 30.5587
rfoot -17.6548 -22.9618
rtoes 0.297313
lfemur -9.69556 4.47187 -17.5245
ltibia 30.2237
lfoot -18.1971 9.70482
ltoes -28.3362
1080
root 5.25648 15.3484 -6.64141 1.03671 0.655866 3.6832
lowerback -0.226953 0.276583 -5.81403
upperback -3.51743 0.303864 1.23711
thorax -3.5543 0.35109 4.53796
lowerneck -16.5275 -2.96569 -3.07848
upperneck -17.5297 -2.88668 5.9797
head -2.84084 -1.33042 2.4427
rclavicle -5.41688e-015 -1.82882e-014
rhumerus -29.307 23.9592 -49.3686
rradius 45.5494
rwrist 9.81579
rhand -7.41823 -24.0363
rfingers 7.12502
rthumb 18.4685 -53.1795
lclavicle -5.41688e-015 -1.82882e-014
lhumerus -41.0636 -13.4856 72.2185
lradius 40.0514
lwrist 5.02707
lhand -30.2006 0.127938
lfingers 7.12502
lthumb -3.5112 30.0788
rfemur -12.1322 9.26582 12.2883
rtibia 30.5197
rfoot -17.781 -23.0304
rtoes 0.630501
lfemur -9.45739 4.82332 -18.6485
ltibia 29.4035
lfoot -17.753 9.69349
ltoes -28.7623
1081
root 5.35577 15.3602 -6.63797 1.2148 1.03074 4.00095
lowerback -0.199493 0.173018 -5.76803
upperback -3.61506 0.165549 1.33261
thorax -3.65507 0.287986 4.61603
lowerneck -16.4765 -2.91937 -2.97176
upperneck -17.7498 -2.88482 5.45587
head -2.93618 -1.33138 2.25051
rclavicle -1.26228e-014 2.14687e-014
rhumerus -28.3944 25.8515 -45.7115
rradius 44.5238
rwrist 10.3726
rhand -8.09768 -23.9177
rfingers 7.12502
rthumb 17.8149 -53.1217
lclavicle -1.26228e-014 2.14687e-014
lhumerus -40.4035 -14.7466 69.1407
lradius 39.9599
lwrist 5.22166
lhand -29.7554 0.0324906
lfingers 7.12502
lthumb -3.08124 29.99
rfemur -12.1842 9.17171 11.4431
rtibia 30.4928
rfoot -17.9644 -22.9654
rtoes 0.979615
lfemur -9.47256 4.72734 -19.4397
ltibia 28.9054
lfoot -17.4345 9.36143
ltoes -28.3951
1082
root 5.44799 15.3718 -6.63565 1.3817 1.47074 4.11692
lowerback -0.161251 0.0442962 -5.58904
upperback -3.73365 -0.00156687 1.52342
thorax -3.77923 0.209256 4.7199
lowerneck -16.4006 -2.85603 -3.05961
upperneck -17.8449 -2.81741 5.16361
head -2.98844 -1.29076 2.17193
rclavicle 8.94531e-016 -7.15625e-015
rhumerus -27.4855 27.469 -41.9187
rradius 43.382
rwrist 11.2143
rhand -8.01813 -23.8513
rfingers 7.12502
rthumb 17.8914 -53.0483
lclavicle 8.94531e-016 -7.15625e-015
lhumerus -39.7984 -16.5731 66.1387
lradius 39.8348
lwrist 5.1498
lhand -29.1187 0.505215
lfingers 7.12502
lthumb -2.46637 30.4707
rfemur -12.1931 8.94041 10.8565
rtibia 30.503
rfoot -18.3376 -22.8256
rtoes 1.16582
lfemur -9.60431 4.49938 -19.9371
ltibia 28.6441
lfoot -17.3044 9.02446
ltoes -28.0173
1083
root 5.53266 15.3811 -6.63048 1.44685 1.76672 3.99692
lowerback -0.12499 -0.0208327 -5.17378
upperback -3.77708 -0.0756737 1.74847
thorax -3.83333 0.165612 4.72279
lowerneck -16.6708 -2.84585 -3.22287
upperneck -17.5686 -2.79301 5.05285
head -2.84785 -1.26382 2.15295
rclavicle -1.98785e-015 1.66979e-014
rhumerus -26.6235 28.6052 -38.0643
rradius 42.243
rwrist 11.9959
rhand -6.94694 -24.0911
rfingers 7.12502
rthumb 18.9219 -53.1908
lclavicle -1.98785e-015 1.66979e-014
lhumerus -39.1512 -18.981 63.089
lradius 39.7873
lwrist 5.35706
lhand -28.053 1.59815
lfingers 7.12502
lthumb -1.43713 31.5731
rfemur -12.1288 8.6735 10.557
rtibia 30.5574
rfoot -19.12 -22.4631
rtoes 1.5792
lfemur -9.6489 4.37966 -20.1576
ltibia 28.4925
lfoot -17.2263 8.94945
ltoes -28.3027
1084
root 5.60975 15.3887 -6.62597 1.52204 1.83889 3.87764
lowerback -0.18312 0.0139613 -4.72765
upperback -3.76465 -0.0123348 1.90155
thorax -3.79179 0.183966 4.6277
lowerneck -16.9563 -2.86393 -3.14952
upperneck -17.3731 -2.84963 4.77812
head -2.73565 -1.28899 2.03589
rclavicle -1.71949e-014 -6.36111e-015
rhumerus -25.6849 29.0572 -34.2586
rradius 40.925
rwrist 12.7279
rhand -5.43484 -24.2145
rfingers 7.12502
rthumb 20.3756 -53.1655
lclavicle -1.71949e-014 -6.36111e-015
lhumerus -38.4206 -21.9947 59.9379
lradius 39.7201
lwrist 5.86668
lhand -26.5354 2.39418
lfingers 7.12502
lthumb 0.0286751 32.3739
rfemur -12.1908 8.15071 10.2553
rtibia 30.6478
rfoot -19.919 -21.6937
rtoes 1.27904
lfemur -9.66322 4.21013 -20.3847
ltibia 28.3634
lfoot -17.1719 9.1784
ltoes -28.4243
1085
root 5.67775 15.3972 -6.62161 1.60799 1.60285 3.80921
lowerback -0.281133 0.126369 -4.40581
upperback -3.73738 0.153086 2.04989
thorax -3.7246 0.256456 4.59495
lowerneck -17.1208 -2.80433 -2.90779
upperneck -17.3414 -2.83667 4.40427
head -2.70732 -1.29094 1.86454
rclavicle 5.76476e-015 -3.97569e-015
rhumerus -24.4782 29.0345 -30.5226
rradius 39.2278
rwrist 13.8472
rhand -4.14292 -24.1948
rfingers 7.12502
rthumb 21.6167 -53.0082
lclavicle 5.76476e-015 -3.97569e-015
lhumerus -37.5853 -25.0366 56.6076
lradius 39.4334
lwrist 6.47899
lhand -24.4773 2.01371
lfingers 7.12502
lthumb 2.01639 31.9839
rfemur -12.391 7.33741 9.93652
rtibia 30.7999
rfoot -20.3292 -20.6538
rtoes -0.263102
lfemur -9.61394 4.01773 -20.647
ltibia 28.2111
lfoot -17.1896 9.67037
ltoes -28.2701
1086
root 5.73509 15.407 -6.61642 1.58901 1.20928 3.65204
lowerback -0.310085 0.256379 -4.0968
upperback -3.66611 0.341068 2.28466
thorax -3.6536 0.341452 4.6594
lowerneck -17.1717 -2.71099 -2.84472
upperneck -17.4294 -2.73905 4.20203
head -2.73804 -1.24475 1.79005
rclavicle -1.47101e-014 -2.8625e-014
rhumerus -23.1901 28.6964 -26.7616
rradius 37.5484
rwrist 15.2271
rhand -3.08006 -24.1221
rfingers 7.12502
rthumb 22.6371 -52.8146
lclavicle -1.47101e-014 -2.8625e-014
lhumerus -36.5259 -27.4072 53.0524
lradius 38.7613
lwrist 6.40228
lhand -22.2181 1.57829
lfingers 7.12502
lthumb 4.19814 31.5167
rfemur -12.5189 6.60202 9.78309
rtibia 31.0434
rfoot -20.4784 -19.7351
rtoes -2.03237
lfemur -9.39742 3.99159 -20.7387
ltibia 28.0158
lfoot -17.234 10.103
ltoes -28.2545
1087
root 5.78098 15.4176 -6.61479 1.54217 0.9563 3.55104
lowerback -0.291463 0.340408 -3.89184
upperback -3.59744 0.462758 2.49183
thorax -3.60591 0.396979 4.75605
lowerneck -17.1501 -2.66128 -2.85872
upperneck -17.5682 -2.67839 4.10945
head -2.79428 -1.21427 1.7667
rclavicle -3.18055e-015 -3.97569e-015
rhumerus -21.9356 27.6406 -23.1059
rradius 35.8731
rwrist 16.5811
rhand -1.58604 -24.347
rfingers 7.12502
rthumb 24.0704 -52.8573
lclavicle -3.18055e-015 -3.97569e-015
lhumerus -35.3951 -29.4886 49.3869
lradius 37.978
lwrist 5.63829
lhand -20.5737 1.76266
lfingers 7.12502
lthumb 5.78596 31.6637
rfemur -12.5781 5.99893 9.60723
rtibia 31.3846
rfoot -20.4945 -19.0828
rtoes -3.62861
lfemur -9.16168 3.94011 -20.8143
ltibia 27.7833
lfoot -17.2392 10.3291
ltoes -28.2135
